<?xml version="1.0" encoding="utf-8"?>
<svg xmlns="http://www.w3.org/2000/svg" viewBox="0 0 30 30" fill="#000000"><path d="M 5 3 C 3.9069372 3 3 3.9069372 3 5 L 3 23 C 3 24.093063 3.9069372 25 5 25 L 8.890625 25 C 8.9176957 25.005227 8.9412182 25.017337 8.96875 25.021484 L 21.96875 26.978516 C 23.07075 27.144516 24.103531 26.382297 24.269531 25.279297 L 26.976562 7.2792969 C 27.142563 6.1752969 26.380344 5.1445156 25.277344 4.9785156 L 19.802734 4.1542969 C 19.479732 3.4778337 18.79081 3 18 3 L 5 3 z M 5 5 L 18 5 L 18 23 L 5 23 L 5 5 z" fill="#000000"/></svg>
