<?xml version="1.0" encoding="utf-8"?>
<!-- Generator: Adobe Illustrator 21.0.0, SVG Export Plug-In . SVG Version: 6.00 Build 0)  -->
<svg version="1.1" xmlns="http://www.w3.org/2000/svg" xmlns:xlink="http://www.w3.org/1999/xlink" x="0px" y="0px" viewBox="0 0 100 100" style="enable-background:new 0 0 100 100;" xml:space="preserve">

<g id="wind_sock">
</g>
<g id="umbrella">
</g>
<g id="temperature">
</g>
<g id="snow_rain_night">
</g>
<g id="snow_rain_day">
</g>
<g id="windy_day">
</g>
<g id="windy_night">
</g>
<g id="storm_night">
</g>
<g id="clear_night">
</g>
<g id="snow_night">
</g>
<g id="snow_day">
</g>
<g id="snow_rain">
</g>
<g id="foggy_night">
</g>
<g id="cloudy_night">
</g>
<g id="rain">
</g>
<g id="storm">
</g>
<g id="fog">
</g>
<g id="wind">
</g>
<g id="cloudy">
</g>
<g id="sun">
</g>
<g id="explorer">
</g>
<g id="visio">
</g>
<g id="access">
</g>
<g id="note">
</g>
<g id="outlook">
</g>
<g id="pdf">
</g>
<g id="power_point">
</g>
<g id="exel">
</g>
<g id="word">
</g>
<g id="office">
</g>
<g id="bridge">
</g>
<g id="muse">
</g>
<g id="flash">
</g>
<g id="premiere">
</g>
<g id="after_effects">
</g>
<g id="dreamwever">
</g>
<g id="indesign">
</g>
<g id="lightroom">
</g>
<g id="illustrator">
</g>
<g id="photoshop">
</g>
<g id="presentation">
</g>
<g id="microphone">
</g>
<g id="globe">
</g>
<g id="password">
</g>
<g id="break_link">
</g>
<g id="link">
</g>
<g id="tap">
</g>
<g id="down">
</g>
<g id="top">
</g>
<g id="direction">
</g>
<g id="move">
</g>
<g id="click">
</g>
<g id="point">
</g>
<g id="like">
</g>
<g id="support">
</g>
<g id="wifi">
</g>
<g id="music">
</g>
<g id="more">
</g>
<g id="visible">
</g>
<g id="error">
</g>
<g id="list">
</g>
<g id="grid">
</g>
<g id="favorite">
</g>
<g id="exit">
</g>
<g id="power">
</g>
<g id="delete">
</g>
<g id="msg">
</g>
<g id="info">
</g>
<g id="help">
</g>
<g id="warning">
</g>
<g id="cassete">
</g>
<g id="piano">
</g>
<g id="speaker">
</g>
<g id="attention">
</g>
<g id="crown">
	<g>
		<g>
			<path d="M58.208,52.477c-0.973-1.54-7.685-16.176-7.685-16.176s-6.711,14.636-7.685,16.176
				c-9.313,14.731-25.106-1.84-25.106-1.84l8.707,28.67h22.416h3.335h22.416l8.707-28.67C83.315,50.637,67.522,67.208,58.208,52.477
				z" style="fill:#F8E474;"/>
			<path d="M74.608,80.307H26.44c-0.44,0-0.829-0.288-0.957-0.709l-8.707-28.67c-0.135-0.443,0.053-0.92,0.453-1.154
				c0.399-0.234,0.906-0.162,1.228,0.173c0.079,0.083,8.055,8.335,15.575,7.584c3.137-0.312,5.815-2.192,7.962-5.587
				c0.77-1.217,5.763-12.004,7.621-16.059c0.163-0.355,0.519-0.583,0.909-0.583s0.746,0.228,0.909,0.583
				c1.858,4.054,6.852,14.841,7.621,16.059c2.147,3.397,4.828,5.277,7.967,5.588c7.527,0.751,15.49-7.501,15.57-7.584
				c0.318-0.336,0.827-0.408,1.228-0.174c0.4,0.233,0.588,0.711,0.453,1.154l-8.707,28.67
				C75.437,80.019,75.048,80.307,74.608,80.307z M27.181,78.307h46.686l7.442-24.506c-3.212,2.615-8.812,6.287-14.485,5.72
				c-3.783-0.375-6.967-2.565-9.461-6.51l0,0c-0.794-1.256-4.927-10.167-6.839-14.316c-1.912,4.149-6.045,13.061-6.839,14.316
				c-2.494,3.945-5.678,6.135-9.461,6.51c-5.677,0.564-11.272-3.105-14.485-5.72L27.181,78.307z" style="fill:#1F212B;"/>
		</g>
		<g>
			<circle cx="16.736" cy="46.351" r="3.88" style="fill:#F8E55B;"/>
			<path d="M16.735,51.23c-2.69,0-4.88-2.189-4.88-4.88s2.189-4.88,4.88-4.88c2.691,0,4.881,2.189,4.881,4.88
				S19.427,51.23,16.735,51.23z M16.735,43.471c-1.588,0-2.88,1.292-2.88,2.88s1.292,2.88,2.88,2.88c1.589,0,2.881-1.292,2.881-2.88
				S18.324,43.471,16.735,43.471z" style="fill:#1F212B;"/>
		</g>
		<g>
			<circle cx="83.888" cy="46.351" r="3.88" style="fill:#F8E55B;"/>
			<path d="M83.888,51.23c-2.69,0-4.88-2.189-4.88-4.88s2.189-4.88,4.88-4.88s4.88,2.189,4.88,4.88
				S86.578,51.23,83.888,51.23z M83.888,43.471c-1.588,0-2.88,1.292-2.88,2.88s1.292,2.88,2.88,2.88s2.88-1.292,2.88-2.88
				S85.476,43.471,83.888,43.471z" style="fill:#1F212B;"/>
		</g>
		<g>
			<circle cx="50.473" cy="32.422" r="3.88" style="fill:#F8E55B;"/>
			<path d="M50.473,37.302c-2.69,0-4.88-2.189-4.88-4.88s2.189-4.88,4.88-4.88c2.691,0,4.881,2.189,4.881,4.88
				S53.164,37.302,50.473,37.302z M50.473,29.541c-1.588,0-2.88,1.292-2.88,2.88c0,1.588,1.292,2.88,2.88,2.88
				c1.589,0,2.881-1.292,2.881-2.88C53.354,30.833,52.062,29.541,50.473,29.541z" style="fill:#1F212B;"/>
		</g>
		<g>
			<g>
				<path d="M40.65,53.143c-0.148-0.151-0.296-0.309-0.443-0.474c-0.877-0.982-7.412-10.628-7.412-10.628
					s-2.976,11.264-3.479,12.482c-0.376,0.911-0.803,1.689-1.272,2.351c0,0,5.898,2.291,9.068,0.527s4.188-3.719,4.188-3.719
					L40.65,53.143z" style="fill:#EFD433;"/>
				<path d="M34.01,58.568c-2.937,0-5.97-1.159-6.146-1.228c-0.144-0.056-0.254-0.175-0.298-0.322
					c-0.045-0.147-0.019-0.307,0.07-0.433c0.458-0.648,0.868-1.406,1.218-2.253c0.388-0.938,2.432-8.534,3.458-12.419
					c0.05-0.189,0.206-0.332,0.399-0.365c0.198-0.033,0.389,0.05,0.498,0.212c2.254,3.327,6.695,9.818,7.371,10.575
					c0.137,0.153,0.272,0.299,0.41,0.439l0.628,0.523c0.182,0.15,0.232,0.407,0.124,0.615c-0.044,0.085-1.125,2.109-4.388,3.925
					C36.389,58.375,35.207,58.568,34.01,58.568z M28.815,56.614c1.533,0.504,5.689,1.667,8.054,0.35
					c2.22-1.235,3.341-2.571,3.771-3.179l-0.309-0.257c-0.014-0.011-0.025-0.022-0.038-0.034c-0.153-0.157-0.307-0.32-0.459-0.492
					c-0.736-0.824-5.178-7.332-6.837-9.772c-0.759,2.852-2.798,10.463-3.22,11.485C29.493,55.402,29.171,56.039,28.815,56.614z" style="fill:#1F212B;"/>
			</g>
			<g>
				
					<ellipse transform="matrix(0.9858 -0.1678 0.1678 0.9858 -6.2078 5.9795)" cx="32.28" cy="39.724" rx="2.37" ry="2.37" style="fill:#EFD433;"/>
				<path d="M32.277,42.594c-1.372,0-2.589-0.99-2.827-2.388c-0.266-1.56,0.788-3.045,2.348-3.311
					c1.56-0.269,3.045,0.787,3.312,2.347v0c0.265,1.56-0.789,3.045-2.349,3.31C32.599,42.581,32.437,42.594,32.277,42.594z
					 M32.281,37.854c-0.104,0-0.21,0.009-0.315,0.026c-1.017,0.173-1.702,1.141-1.529,2.157c0.174,1.016,1.143,1.7,2.156,1.53
					c1.017-0.173,1.702-1.141,1.53-2.157l0,0C33.968,38.5,33.175,37.854,32.281,37.854z" style="fill:#1F212B;"/>
			</g>
		</g>
		<g>
			<g>
				<path d="M72.106,56.873c-0.468-0.662-0.896-1.441-1.272-2.351c-0.503-1.217-3.479-12.482-3.479-12.482
					s-6.535,9.645-7.412,10.628c-0.147,0.165-0.295,0.323-0.443,0.474c0,0,2.839,3.927,5.205,4.661
					c2.366,0.735,7.401-0.341,7.401-0.341V56.873z" style="fill:#EFD433;"/>
				<path d="M66.916,58.56c-0.873,0-1.705-0.075-2.359-0.278c-2.496-0.775-5.342-4.68-5.462-4.846
					c-0.143-0.197-0.122-0.468,0.047-0.642c0.143-0.146,0.286-0.298,0.429-0.458c0.676-0.758,5.117-7.249,7.371-10.576
					c0.109-0.162,0.301-0.246,0.498-0.212c0.193,0.033,0.35,0.175,0.399,0.365c1.026,3.885,3.07,11.481,3.457,12.419
					c0.353,0.851,0.763,1.609,1.219,2.252c0.06,0.084,0.092,0.186,0.092,0.289v0.59c0,0.236-0.165,0.439-0.396,0.489
					C72.056,57.985,69.329,58.56,66.916,58.56z M60.154,53.18c0.728,0.938,2.904,3.589,4.699,4.147
					c1.845,0.575,5.54-0.045,6.753-0.274V57.03c-0.462-0.675-0.877-1.453-1.234-2.316c-0.422-1.022-2.46-8.633-3.219-11.485
					c-1.659,2.44-6.101,8.949-6.837,9.773C60.263,53.062,60.209,53.121,60.154,53.18z" style="fill:#1F212B;"/>
			</g>
			<g>
				
					<ellipse transform="matrix(0.1678 -0.9858 0.9858 0.1678 17.3211 99.9671)" cx="67.87" cy="39.724" rx="2.37" ry="2.37" style="fill:#EFD433;"/>
				<path d="M67.877,42.595c-0.162,0-0.325-0.014-0.488-0.042c-1.56-0.266-2.613-1.75-2.348-3.311l0,0
					c0.266-1.56,1.75-2.615,3.311-2.347c0.756,0.128,1.416,0.543,1.859,1.169c0.443,0.625,0.617,1.386,0.488,2.142
					c-0.128,0.755-0.543,1.416-1.169,1.859C69.04,42.413,68.466,42.595,67.877,42.595z M66.027,39.411
					c-0.173,1.016,0.513,1.984,1.529,2.157c0.494,0.084,0.987-0.029,1.396-0.318c0.407-0.289,0.678-0.719,0.761-1.211
					c0.084-0.493-0.028-0.989-0.317-1.396s-0.719-0.678-1.212-0.762C67.17,37.713,66.201,38.394,66.027,39.411L66.027,39.411z" style="fill:#1F212B;"/>
			</g>
		</g>
		<path d="M63.644,74.307h-39c-0.276,0-0.5-0.224-0.5-0.5s0.224-0.5,0.5-0.5h39c0.276,0,0.5,0.224,0.5,0.5
			S63.92,74.307,63.644,74.307z" style="fill:#1F212B;"/>
		<path d="M69.644,74.307h-3c-0.276,0-0.5-0.224-0.5-0.5s0.224-0.5,0.5-0.5h3c0.276,0,0.5,0.224,0.5,0.5
			S69.92,74.307,69.644,74.307z" style="fill:#1F212B;"/>
		<path d="M72.644,74.307h-1c-0.276,0-0.5-0.224-0.5-0.5s0.224-0.5,0.5-0.5h1c0.276,0,0.5,0.224,0.5,0.5
			S72.92,74.307,72.644,74.307z" style="fill:#1F212B;"/>
	</g>
</g>
<g id="prize">
</g>
<g id="medal">
</g>
<g id="alarm">
</g>
<g id="stopper">
</g>
<g id="flag">
</g>
<g id="snapchat">
</g>
<g id="dribbble">
</g>
<g id="flickr">
</g>
<g id="youtube">
</g>
<g id="skype">
</g>
<g id="twitter">
</g>
<g id="instagram">
</g>
<g id="linkedin">
</g>
<g id="vimeo">
</g>
<g id="tumbler">
</g>
<g id="google">
</g>
<g id="whatsapp">
</g>
<g id="facebook">
</g>
<g id="curve">
</g>
<g id="paint_bucket">
</g>
<g id="roller">
</g>
<g id="switch">
</g>
<g id="scissors">
</g>
<g id="picker">
</g>
<g id="brush">
</g>
</svg>
