<?xml version="1.0" encoding="iso-8859-1"?>
<!-- Generator: Adobe Illustrator 22.1.0, SVG Export Plug-In . SVG Version: 6.00 Build 0)  -->
<svg xmlns="http://www.w3.org/2000/svg" xmlns:xlink="http://www.w3.org/1999/xlink" version="1.1" id="Layer_1" x="0px" y="0px" viewBox="0 0 128 128" style="enable-background:new 0 0 128 128;" xml:space="preserve">
<path style="fill:#454B54;" d="M28.3,102.7c-0.8,0-1.5-0.3-2.1-0.9c-1.2-1.2-1.2-3.1,0-4.2l71.3-71.3c1.2-1.2,3.1-1.2,4.2,0  c1.2,1.2,1.2,3.1,0,4.2l-71.3,71.3C29.9,102.4,29.1,102.7,28.3,102.7"/>
<path style="fill:#454B54;" d="M99.7,102.7c-0.8,0-1.5-0.3-2.101-0.9L26.2,30.5c-1.2-1.2-1.2-3.1,0-4.2c1.2-1.2,3.1-1.2,4.2,0  l71.3,71.3c1.2,1.2,1.2,3.101,0,4.2C101.2,102.4,100.4,102.7,99.7,102.7"/>
<path style="fill:#FFFFFF;" d="M64,22c22.92,0,41.5,18.804,41.5,42S86.92,106,64,106S22.5,87.196,22.5,64S41.08,22,64,22"/>
<path style="fill:#D2D6DB;" d="M34.528,97.671l-3.722,3.722C39.636,109.236,51.261,114,64,114s24.364-4.763,33.193-12.606  l-3.725-3.719C85.609,104.717,75.281,109,64,109C52.717,109,42.389,104.715,34.528,97.671 M26.56,30.859  C18.745,39.682,14,51.287,14,64c0,12.739,4.763,24.364,12.607,33.193l3.768-3.768C23.606,85.528,19.5,75.236,19.5,64l0,0l0,0  c0-11.212,4.089-21.484,10.832-29.374L26.56,30.859 M101.393,30.807l-3.768,3.768C104.394,42.472,108.5,52.764,108.5,64l0,0l0,0  c0,11.262-4.124,21.575-10.921,29.478l3.767,3.767C109.217,88.41,114,76.764,114,64C114,51.261,109.237,39.636,101.393,30.807   M64,14c-12.764,0-24.411,4.783-33.246,12.654l3.722,3.722C42.343,23.303,52.692,19,64,19c11.283,0,21.611,4.284,29.471,11.328  l3.722-3.722C88.364,18.763,76.739,14,64,14"/>
<path style="fill:#505963;" d="M30.375,93.425l-3.768,3.768c1.316,1.481,2.719,2.884,4.2,4.2l3.722-3.722  C33.053,96.349,31.666,94.931,30.375,93.425"/>
<path style="fill:#505963;" d="M97.193,26.607l-3.722,3.722c1.475,1.322,2.862,2.74,4.154,4.247l3.768-3.768  C100.078,29.326,98.674,27.922,97.193,26.607"/>
<path style="fill:#505963;" d="M97.579,93.478c-1.279,1.487-2.652,2.889-4.111,4.196l3.725,3.719c1.464-1.3,2.851-2.686,4.154-4.148  L97.579,93.478"/>
<path style="fill:#505963;" d="M30.754,26.654c-1.479,1.318-2.88,2.722-4.194,4.206l3.772,3.766c1.288-1.507,2.672-2.926,4.144-4.25  L30.754,26.654"/>
<path style="fill:#7CA5C6;" d="M64,35c16.017,0,29,12.984,29,29c0,16.017-12.983,29-29,29c-16.016,0-29-12.983-29-29  C35,47.984,47.984,35,64,35"/>
<path style="fill:#657F99;" d="M57.282,68.934c-6.455,3.578-13.35,5.124-15.976,7.715C45.767,84.599,54.283,90,64,90  c4.799,0,9.304-1.317,13.174-3.609c-4.089-1.835-7.551-8.041-9.899-13.456c-0.529,0.211-1.043,0.329-1.517,0.329  c-0.703,0-1.317-0.26-1.758-0.864l0,0C61.238,72.4,58.791,71.035,57.282,68.934"/>
<path style="fill:#57687E;" d="M71.608,69.414c-1.157,1.536-2.807,2.914-4.334,3.522c2.348,5.415,5.811,11.621,9.899,13.456  c3.966-2.348,7.262-5.718,9.52-9.742C84.188,74.177,77.797,72.657,71.608,69.414"/>
<path style="fill:#454B54;" d="M64,109c-24.5,0-44.5-20.2-44.5-45s20-45,44.5-45s44.5,20.2,44.5,45S88.5,109,64,109 M64,25  c-21.2,0-38.5,17.5-38.5,39s17.3,39,38.5,39s38.5-17.5,38.5-39S85.2,25,64,25"/>
<path style="fill:#454B54;" d="M64,96c-17.6,0-32-14.4-32-32s14.4-32,32-32s32,14.4,32,32S81.6,96,64,96 M64,38  c-14.3,0-26,11.7-26,26s11.7,26,26,26s26-11.7,26-26S78.3,38,64,38"/>
<path style="fill:#FFFFFF;" d="M64,55.6c4.584,0,8.3,3.761,8.3,8.4c0,4.64-3.716,8.4-8.3,8.4s-8.3-3.761-8.3-8.4  S59.416,55.6,64,55.6"/>
<path style="fill:#B4B5BB;" d="M68.942,62.732c-4.265,0-7.878,5.621-4.942,9.669l0,0c0.995,0,1.949-0.177,2.834-0.502  c1.57-0.577,2.919-1.62,3.884-2.964l0,0C71.713,67.549,72.3,65.844,72.3,64l0,0C71.205,63.112,70.052,62.732,68.942,62.732"/>
<path style="fill:#454B54;" d="M64,75.4c-6.2,0-11.3-5.101-11.3-11.4S57.8,52.6,64,52.6S75.3,57.7,75.3,64S70.2,75.4,64,75.4z   M64,58.6c-2.9,0-5.3,2.4-5.3,5.4s2.4,5.4,5.3,5.4c2.9,0,5.3-2.4,5.3-5.4S66.9,58.6,64,58.6z"/>
</svg>
