<?xml version="1.0" encoding="iso-8859-1"?>
<!-- Generator: Adobe Illustrator 21.1.0, SVG Export Plug-In . SVG Version: 6.00 Build 0)  -->
<svg xmlns="http://www.w3.org/2000/svg" xmlns:xlink="http://www.w3.org/1999/xlink" version="1.1" id="Layer_1" x="0px" y="0px" viewBox="0 0 48 48" style="enable-background:new 0 0 48 48;" xml:space="preserve">
<rect x="6" y="6" style="fill:#D7CCC8;" width="36" height="36"/>
<polygon style="fill:#263238;" points="10,26 10,22 6,22 6,26 6,30 10,30 14,30 14,26 "/>
<polygon style="fill:#263238;" points="38,26 38,22 42,22 42,26 42,30 38,30 34,30 34,26 "/>
<rect x="34" y="22" style="fill:#FFFFFF;" width="4" height="4"/>
<rect x="10" y="22" style="fill:#FFFFFF;" width="4" height="4"/>
<polygon style="fill:#263238;" points="14,4 4,4 4,14 8,14 8,8 14,8 "/>
<polygon style="fill:#263238;" points="34,4 44,4 44,14 40,14 40,8 34,8 "/>
<polygon style="fill:#263238;" points="32,34 32,30 28,30 28,26 24,26 20,26 20,30 16,30 16,34 12,34 12,42 36,42 36,34 "/>
<rect x="20" y="38" style="fill:#EF9A9A;" width="8" height="8"/>
<rect x="20" y="38" style="fill:#E57373;" width="4" height="8"/>
</svg>
